<svg xmlns="http://www.w3.org/2000/svg" viewBox="0 0 40 28" width="64" height="64">
<path d="M19.9512 27.7667H32.2514C33.2564 27.7667 34.2515 27.5675 35.18 27.1807C36.1084 26.7939 36.952 26.2269 37.6626 25.5122C38.3733 24.7974 38.937 23.9489 39.3214 23.0149C39.7061 22.0811 39.904 21.0803 39.904 20.0693C39.9042 18.7078 39.5452 17.3704 38.8635 16.1939C38.1818 15.0175 37.202 14.0441 36.0238 13.3734C36.0192 13.3706 36.014 13.3686 36.0087 13.3677C35.8482 13.9852 35.5176 14.7248 35.0392 15.5314C35.04 15.5342 35.0509 15.5396 35.0509 15.5396C36.0304 16.1514 36.785 17.0676 37.2004 18.1494C37.6159 19.2314 37.6694 20.42 37.3529 21.5351C37.0365 22.6504 36.3673 23.6316 35.4468 24.3299C34.5263 25.0283 33.4045 25.4059 32.2514 25.4055H25.2845L19.9512 27.7667Z" fill="#BAEB50"/>
<path d="M23.1246 12.3726L16.6684 5.87863C16.2976 5.50557 15.89 5.17166 15.4516 4.88211C13.9804 3.91328 12.222 3.48329 10.4728 3.66481C8.72352 3.84633 7.08975 4.62807 5.84609 5.87863C4.88853 6.84124 4.20215 8.04228 3.85709 9.35904C3.51203 10.6758 3.52064 12.0611 3.88205 13.3734C4.57012 12.9797 5.31511 12.6966 6.09009 12.5342C5.99837 12.1365 5.95208 11.7296 5.95211 11.3214C5.95211 10.266 6.26324 9.23432 6.84618 8.3568C7.42911 7.47928 8.25766 6.79532 9.22704 6.39145C10.1964 5.98758 11.2631 5.8819 12.2922 6.0878C13.3213 6.29369 14.2666 6.80192 15.0085 7.54819L19.805 12.3727H19.9549C21.9325 12.3783 23.8323 13.1493 25.26 14.5257L23.1246 12.3726Z" fill="#3F98FF"/>
<path d="M25.4546 25.406L34.0463 16.7641C34.4171 16.3912 34.7492 15.981 35.0372 15.54C35.9996 14.0599 36.4265 12.2917 36.246 10.5324C36.0657 8.77317 35.2888 7.12991 34.0463 5.87862C33.089 4.9157 31.895 4.22549 30.5858 3.87838C29.2768 3.53128 27.8996 3.53974 26.5948 3.90288C26.9863 4.59504 27.2678 5.34446 27.4294 6.12404C27.8247 6.03179 28.2293 5.98522 28.6351 5.98526C30.0421 5.98526 31.3915 6.54746 32.3864 7.54817C33.3813 8.54889 33.9402 9.90614 33.9402 11.3214C33.9402 11.7296 33.8939 12.1365 33.8023 12.5342C33.6137 13.3523 33.2341 14.1136 32.695 14.7548C32.5971 14.8715 32.4949 14.9853 32.3864 15.0945L27.5863 19.9227C27.5872 19.9719 27.59 20.0205 27.59 20.0699C27.6279 22.3478 26.6526 23.9633 25.4546 25.406Z" fill="#66F8CE"/>
<path d="M27.5999 19.9094L27.6039 14.7333V7.6972C27.604 7.16864 27.5503 6.64146 27.4434 6.12394C27.0828 4.39348 26.1415 2.8401 24.7773 1.72509C23.4131 0.610079 21.7092 0.000973369 19.9515 3.13874e-07C18.5977 -0.000388611 17.268 0.360669 16.0984 1.04629C14.9288 1.73191 13.961 2.71753 13.2939 3.90246C14.0582 4.11387 14.7851 4.4442 15.4479 4.88147C15.9237 4.11092 16.587 3.47531 17.3749 3.03427C18.1629 2.59323 19.0497 2.36155 19.9515 2.36111C21.3578 2.363 22.7061 2.92578 23.7007 3.9261C24.6952 4.9264 25.2547 6.28255 25.2566 7.6972V14.5254L25.2603 14.5286C26.0084 15.1967 27.5527 17.3223 27.5999 19.9094Z" fill="#41C3EF"/>
<path d="M27.6013 19.9091C27.5594 17.8963 26.7353 15.9802 25.3056 14.5713C23.8759 13.1624 21.9544 12.3728 19.9528 12.3719H7.65249C6.64756 12.3719 5.65245 12.571 4.72401 12.9578C3.79557 13.3446 2.95196 13.9116 2.24136 14.6264C1.53076 15.3412 0.967083 16.1897 0.58251 17.1236C0.197937 18.0574 -5.23978e-07 19.0583 0 20.0692C-1.05822e-06 22.1105 0.806241 24.0684 2.24136 25.5119C3.67648 26.9554 5.62292 27.7664 7.65249 27.7664H19.9528C21.982 27.765 23.9277 26.9536 25.3625 25.5105C26.7973 24.0672 27.6041 22.1102 27.6053 20.0692C27.6053 20.0155 27.6024 19.9626 27.6013 19.9091ZM19.9528 25.4052H7.65249C6.24588 25.4047 4.8971 24.8422 3.9027 23.8416C2.9083 22.841 2.34968 21.484 2.34968 20.0692C2.34968 18.6543 2.9083 17.2975 3.9027 16.2968C4.8971 15.2961 6.24588 14.733 7.65249 14.733H19.9528C21.3594 14.7337 22.7083 15.2961 23.7026 16.2968C24.697 17.2975 25.2556 18.6543 25.2556 20.0692C25.2556 21.484 24.697 22.841 23.7026 23.8416C22.7083 24.8422 21.3594 25.4047 19.9528 25.4052Z" fill="#4178FF"/>
</svg>
